<svg xmlns="http://www.w3.org/2000/svg" version="1.1" xmlns:xlink="http://www.w3.org/1999/xlink" width="32" height="32"><svg width="32" height="32" viewBox="0 0 32 32" xmlns="http://www.w3.org/2000/svg">
  <!-- Transparent background (remove the white background) -->
  
  <!-- Calendar base -->
  <rect x="4" y="6" width="24" height="22" fill="#90ee90" stroke="#32cd32" stroke-width="2"></rect>
  
  <!-- Calendar header -->
  <rect x="4" y="6" width="24" height="6" fill="#ffd93d"></rect>
  
  <!-- Ring holes -->
  <rect x="8" y="2" width="2" height="6" fill="#666666"></rect>
  <rect x="22" y="2" width="2" height="6" fill="#666666"></rect>
  
  <!-- Calendar grid dots -->
  <rect x="8" y="16" width="2" height="2" fill="#32cd32"></rect>
  <rect x="12" y="16" width="2" height="2" fill="#32cd32"></rect>
  <rect x="16" y="16" width="2" height="2" fill="#32cd32"></rect>
  <rect x="20" y="16" width="2" height="2" fill="#32cd32"></rect>
  
  <rect x="8" y="20" width="2" height="2" fill="#32cd32"></rect>
  <rect x="12" y="20" width="2" height="2" fill="#ff6b6b"></rect>
  <rect x="16" y="20" width="2" height="2" fill="#32cd32"></rect>
  <rect x="20" y="20" width="2" height="2" fill="#32cd32"></rect>
  
  <rect x="8" y="24" width="2" height="2" fill="#32cd32"></rect>
  <rect x="12" y="24" width="2" height="2" fill="#32cd32"></rect>
  <rect x="16" y="24" width="2" height="2" fill="#32cd32"></rect>
</svg><style>@media (prefers-color-scheme: light) { :root { filter: none; } }
@media (prefers-color-scheme: dark) { :root { filter: none; } }
</style></svg>